# xmcd
# 
# Track frame offsets:
#     150
#     21890
#     37039
#     58071
#     71457
#     85972
#     100827
#     116954
#     130268
#     155245
#     165611
#     178331
# 
# Disc length: 2764
# 
# Revision: 1
# Processed by: cddbd v1.5.2PL0 Copyright (c) Steve Scherf et al.
# Submitted via: fre:ac v1.0.31
# 
DISCID=ad0aca0c
DTITLE=R&B - R&B Soul Disc 1
DYEAR=2006
DGENRE=R&B
TTITLE0=Always
TTITLE1=La-La Means I Love You
TTITLE2=Close The Door
TTITLE3=Oh Girl
TTITLE4=Stand By Me
TTITLE5=Tracks Of My Tears
TTITLE6=If You Don't Know Me By Now
TTITLE7=Lead Me On
TTITLE8=I'll Be Good To You
TTITLE9=Papa's Got A Brand New Bag
TTITLE10=On Broadway
TTITLE11=They Can't Take Away Our Music
EXTD=
EXTT0=
EXTT1=
EXTT2=
EXTT3=
EXTT4=
EXTT5=
EXTT6=
EXTT7=
EXTT8=
EXTT9=
EXTT10=
EXTT11=
PLAYORDER=
